# xmcd CD database file
#
# Track frame offsets:
#	150
#	13965
#	25180
#	37805
#	48728
#	62059
#	72749
#	83601
#	97874
#	108789
#	133849
#
# Disc length: 2028 seconds
#
# Revision: 0
# Processed by: cddbd v1.5.1PL0 Copyright (c) Steve Scherf et al.
# Submitted via: CDex 1.51
#
DISCID=8e07ea0b
DTITLE=Ernesto Cortazar - Tic Tac Blues
DYEAR=1900
DGENRE=Blues
TTITLE0=Tic Tac Blues
TTITLE1=Broadway
TTITLE2=Play It Again
TTITLE3=Champagne Bubbles
TTITLE4=Follow My Steps
TTITLE5=Morning Train
TTITLE6=In Mood For Love
TTITLE7=Sweetheart
TTITLE8=Tap
TTITLE9=Do You Remember
TTITLE10=MP3 Data
EXTD=
EXTT0=
EXTT1=
EXTT2=
EXTT3=
EXTT4=
EXTT5=
EXTT6=
EXTT7=
EXTT8=
EXTT9=
EXTT10=
PLAYORDER=
